<?xml version="1.0" encoding="UTF-8" standalone="no"?>
<svg
   xmlns:dc="http://purl.org/dc/elements/1.1/"
   xmlns:cc="http://creativecommons.org/ns#"
   xmlns:rdf="http://www.w3.org/1999/02/22-rdf-syntax-ns#"
   xmlns:svg="http://www.w3.org/2000/svg"
   xmlns="http://www.w3.org/2000/svg"
   xmlns:sodipodi="http://sodipodi.sourceforge.net/DTD/sodipodi-0.dtd"
   xmlns:inkscape="http://www.inkscape.org/namespaces/inkscape"
   version="1.0"
   width="192.000000pt"
   height="192.000000pt"
   viewBox="0 0 192.000000 192.000000"
   preserveAspectRatio="xMidYMid meet"
   id="svg32"
   sodipodi:docname="gymaths_icon_foreground.svg"
   inkscape:version="0.92.5 (2060ec1f9f, 2020-04-08)">
  <metadata
     id="metadata38">
    <rdf:RDF>
      <cc:Work
         rdf:about="">
        <dc:format>image/svg+xml</dc:format>
        <dc:type
           rdf:resource="http://purl.org/dc/dcmitype/StillImage" />
        <dc:title></dc:title>
      </cc:Work>
    </rdf:RDF>
  </metadata>
  <defs
     id="defs36" />
  <sodipodi:namedview
     pagecolor="#ffffff"
     bordercolor="#666666"
     borderopacity="1"
     objecttolerance="10"
     gridtolerance="10"
     guidetolerance="10"
     inkscape:pageopacity="0"
     inkscape:pageshadow="2"
     inkscape:window-width="1920"
     inkscape:window-height="1016"
     id="namedview34"
     showgrid="false"
     inkscape:zoom="3.6875"
     inkscape:cx="118.29065"
     inkscape:cy="164.53998"
     inkscape:window-x="1920"
     inkscape:window-y="27"
     inkscape:window-maximized="1"
     inkscape:current-layer="g30" />
  <g
     transform="translate(0.000000,192.000000) scale(0.100000,-0.100000)"
     fill="#000000"
     stroke="none"
     id="g30">
    <path
       d="M1388 1727 c-56 -42 -68 -57 -68 -80 0 -15 -6 -30 -14 -33 -11 -4 -12 -12 -4 -34 14 -43 56 -49 105 -15 l38 26 52 -107 c57 -117 56 -114 6 -181 -26 -33 -120 -97 -257 -174 -56 -31 -93 -61 -129 -104 -58 -69 -113 -178 -123 -243 -6 -39 -8 -43 -19 -28 -11 14 -12 6 -8 -46 8 -98 -22 -166 -107 -250 -57 -55 -82 -71 -152 -98 -95 -37 -198 -64 -317 -85 -47 -9 -86 -17 -88 -19 -7 -7 41 -96 52 -96 7 0 69 16 139 35 347 95 457 167 507 333 8 29 15 39 21 30 4 -8 8 12 8 48 0 115 57 248 145 339 32 34 97 80 183 130 132 77 179 113 218 168 l19 28 37 -75 37 -75 -29 -18 c-18 -10 -30 -26 -30 -38 0 -11 -7 -30 -15 -42 -20 -28 -3 -69 32 -78 23 -5 77 25 177 100 37 28 36 135 -2 120 -7 -3 -23 0 -34 6 -16 9 -26 7 -49 -10 -25 -18 -49 -27 -49 -18 0 2 -47 104 -105 227 -58 122 -105 226 -105 229 0 4 18 17 39 30 31 20 40 32 44 60 6 51 -7 79 -35 78 -13 0 -30 2 -38 6 -9 3 -42 -15 -82 -46z m32 -28 c-72 -51 -80 -55 -80 -40 0 16 121 100 136 94 9 -3 -11 -23 -56 -54z m110 37 c0 -14 -190 -159 -206 -158 -27 1 -3 27 81 87 52 37 98 71 101 76 8 14 24 11 24 -5z m0 -54 c0 -24 -167 -139 -181 -125 -7 7 21 33 82 77 51 36 94 66 96 66 1 0 3 -8 3 -18z m237 -523 c9 -9 -7 -25 -63 -65 -41 -30 -77 -54 -79 -54 -3 0 -5 8 -5 18 1 9 29 38 63 64 70 53 69 52 84 37z m52 -33 c-21 -19 -203 -146 -210 -146 -5 0 -9 6 -9 13 1 18 203 157 214 146 5 -5 8 -10 5 -13z"
       id="path2" />
    <path
       d="M1623 1700 c-60 -27 -131 -140 -89 -140 7 0 19 14 26 30 18 44 75 90 111 90 24 0 30 4 27 17 -5 25 -26 26 -75 3z"
       id="path4" />
    <path
       d="M1630 1594 c0 -3 5 -14 11 -25 8 -16 7 -25 -5 -38 -15 -17 -22 -51 -10 -51 3 0 13 7 22 16 14 15 17 15 28 -1 8 -10 15 -23 17 -29 2 -6 8 -7 13 -3 4 4 3 21 -3 37 -10 26 -9 32 8 40 10 6 19 20 19 30 0 24 -8 25 -32 3 -18 -16 -19 -15 -34 5 -14 20 -34 30 -34 16z"
       id="path6"
       style="fill:#ff00ff;fill-opacity:1" />
    <path
       d="M1744 1462 c-22 -15 -58 -41 -79 -59 -37 -31 -38 -32 -22 -57 31 -46 93 -46 123 0 14 21 15 29 5 52 -11 23 -10 29 8 43 20 17 29 49 14 49 -5 0 -26 -12 -49 -28z m1 -72 c11 -18 -15 -40 -46 -40 -35 0 -37 13 -7 34 26 19 44 20 53 6z"
       id="path8"
       style="fill:#ff00ff;fill-opacity:1" />
    <path
       d="M198 1380 c-76 -53 -86 -64 -90 -94 -5 -47 8 -80 28 -72 8 3 25 1 36 -5 16 -9 26 -7 49 10 15 12 32 21 37 21 5 0 23 -30 40 -67 17 -38 64 -141 106 -231 l75 -162 -39 -26 c-30 -20 -40 -34 -45 -64 -8 -48 2 -83 21 -76 8 3 25 1 38 -5 20 -10 32 -5 89 37 50 35 68 55 73 78 3 17 11 37 17 44 15 19 -7 60 -37 68 -17 4 -35 -1 -53 -13 -15 -11 -34 -23 -41 -27 -8 -5 -26 22 -57 90 -54 117 -53 121 56 137 111 15 212 -8 302 -69 38 -26 84 -67 103 -92 39 -51 44 -46 13 13 -62 115 -179 206 -299 231 -75 16 -172 13 -240 -6 -30 -9 -30 -8 -65 67 -19 42 -35 81 -35 88 0 6 11 18 25 25 15 8 25 22 25 34 0 12 7 31 15 43 26 36 -5 82 -55 83 -3 0 -44 -27 -92 -60z m142 8 c0 -13 -185 -145 -205 -147 -29 -3 0 25 89 88 102 73 116 80 116 59z m-20 -65 c-1 -37 -151 -125 -154 -91 -1 7 134 106 147 107 4 1 7 -7 7 -16z m280 -508 c0 -3 -152 -113 -177 -129 -9 -5 -13 -1 -13 12 0 22 157 132 178 125 6 -3 12 -6 12 -8z m25 -24 c3 -6 -43 -44 -102 -86 -74 -52 -109 -71 -114 -63 -5 7 6 22 29 38 185 133 176 127 187 111z"
       id="path10" />
    <path
       d="M1836 1335 c-15 -26 -36 -44 -83 -66 -35 -16 -63 -34 -63 -39 0 -21 24 -20 74 3 57 26 106 80 106 115 0 32 -13 27 -34 -13z"
       id="path12" />
    <path
       d="M154 1136 c-55 -26 -104 -79 -104 -114 0 -29 18 -28 29 1 13 33 65 74 112 88 26 8 39 18 37 27 -5 24 -19 24 -74 -2z"
       id="path14" />
    <path
       d="M216 1055 c-7 -33 -9 -35 -46 -35 -49 0 -56 -27 -10 -36 25 -5 28 -9 20 -25 -6 -10 -10 -25 -10 -33 0 -27 20 -17 37 18 13 27 23 36 47 38 23 2 32 9 34 24 3 18 -1 21 -22 17 -24 -5 -25 -3 -19 31 4 28 2 36 -10 36 -9 0 -17 -13 -21 -35z"
       id="path16"
       style="fill:#0000ff;fill-opacity:1" />
    <path
       d="M248 929 c-53 -45 -61 -74 -28 -104 20 -18 50 -15 50 6 0 6 -9 13 -20 16 -21 5 -25 15 -13 26 3 4 17 -2 29 -14 31 -29 68 -22 72 14 2 17 -3 36 -13 47 -9 9 -15 23 -13 30 6 26 -19 18 -64 -21z m59 -34 c3 -9 3 -19 -1 -22 -7 -7 -36 16 -36 28 0 15 30 10 37 -6z"
       id="path18"
       style="fill:#0000ff;fill-opacity:1" />
    <path
       d="M1230 839 c-150 -123 -141 -112 -102 -123 18 -6 22 -4 22 16 1 17 22 40 76 83 80 63 102 85 88 85 -5 0 -43 -28 -84 -61z"
       id="path20" />
    <path
       d="M684 851 c3 -5 37 -28 76 -51 46 -28 70 -49 70 -61 0 -24 11 -28 38 -14 27 14 28 13 -86 84 -79 48 -110 62 -98 42z"
       id="path22" />
    <path
       d="M340 810 c-23 -46 -71 -80 -112 -80 -21 0 -28 -5 -28 -20 0 -48 109 -7 153 57 28 40 34 68 17 78 -5 3 -19 -13 -30 -35z"
       id="path24" />
    <path
       d="M1063 463 c32 -62 111 -135 165 -151 22 -7 106 -17 188 -22 82 -6 170 -13 197 -16 26 -4 47 -4 47 0 0 6 -39 87 -45 94 -2 2 -88 8 -192 12 -219 10 -259 20 -334 88 l-51 46 25 -51z"
       id="path26" />
    <path
       d="M950 367 c0 -4 12 -25 26 -47 24 -36 29 -39 43 -26 24 22 54 76 42 76 -6 0 -15 -8 -20 -17 -28 -50 -30 -50 -61 -13 -16 19 -30 32 -30 27z"
       id="path28" />
    <path
       style="fill:#ffff00;fill-opacity:1;stroke:none;stroke-width:0.22431131;stroke-linecap:round;stroke-linejoin:round;stroke-miterlimit:4;stroke-dasharray:none;stroke-dashoffset:0;stroke-opacity:1;paint-order:normal"
       d="m 22.664622,92.490232 c -0.166455,-0.1015 -0.34826,-0.323447 -0.409983,-0.500506 -0.110712,-0.31759 -0.109545,-0.31945 0.682596,-1.08831 2.637922,-2.560394 13.514417,-10.500824 17.580363,-12.834618 0.939085,-0.539021 1.313518,-0.634202 1.572583,-0.399751 0.277729,0.251341 0.484503,0.987679 0.491648,1.750792 0.0076,0.809186 -0.287068,1.518787 -1.046298,2.519833 -0.623582,0.822194 -2.61309,2.729554 -3.86036,3.700964 -4.020077,3.13095 -9.254965,5.996957 -12.420368,6.799927 -1.157237,0.293558 -2.160673,0.313574 -2.590181,0.05167 z"
       id="path845"
       inkscape:connector-curvature="0"
       transform="matrix(7.5,0,0,-7.5,0,1920)" />
    <path
       style="fill:#ffff00;fill-opacity:1;stroke:none;stroke-width:0.22431131;stroke-linecap:round;stroke-linejoin:round;stroke-miterlimit:4;stroke-dasharray:none;stroke-dashoffset:0;stroke-opacity:1;paint-order:normal"
       d="m 179.88867,48.358101 c -0.66305,-0.66305 1.65451,-3.119788 6.43224,-6.818524 2.67899,-2.073977 4.79856,-3.599371 11.23824,-8.087851 4.84409,-3.376346 5.98975,-4.122059 6.08818,-3.962802 0.1326,0.214553 0.28785,1.256659 0.28687,1.925644 -0.001,0.841259 -0.30657,1.346428 -1.65857,2.744044 -5.10667,5.278955 -18.87941,14.314543 -21.81932,14.314543 -0.24892,0 -0.50436,-0.05177 -0.56764,-0.115054 z"
       id="path847"
       inkscape:connector-curvature="0"
       transform="matrix(7.5,0,0,-7.5,0,1920)" />
    <path
       style="fill:#ffc200;fill-opacity:1;stroke:none;stroke-width:0.22431131;stroke-linecap:round;stroke-linejoin:round;stroke-miterlimit:4;stroke-dasharray:none;stroke-dashoffset:0;stroke-opacity:1;paint-order:normal"
       d="m 216.45017,117.09821 c -0.34101,-0.48516 -0.52057,-1.95117 -0.30281,-2.47235 0.51887,-1.24183 3.40365,-4.2316 6.62797,-6.8692 1.46171,-1.19573 6.5812,-5.0398 7.92699,-5.95215 0.56305,-0.38171 1.38054,-0.86656 1.81663,-1.07745 1.266,-0.61222 1.75678,-0.51869 2.7599,0.52594 0.47739,0.49716 0.58377,0.66646 0.58314,0.928 -0.002,0.96381 -1.61242,2.62829 -5.0808,5.25256 -4.53632,3.43229 -12.52021,9.02762 -13.87321,9.72273 -0.29604,0.15209 -0.31146,0.15014 -0.45781,-0.0581 z"
       id="path849"
       inkscape:connector-curvature="0"
       transform="matrix(7.5,0,0,-7.5,0,1920)" />
    <path
       style="fill:#ffa400;fill-opacity:1;stroke:none;stroke-width:0.22431131;stroke-linecap:round;stroke-linejoin:round;stroke-miterlimit:4;stroke-dasharray:none;stroke-dashoffset:0;stroke-opacity:1;paint-order:normal"
       d="m 176.06277,45.495101 c -0.55527,-0.10822 -0.7831,-0.247162 -0.85138,-0.519201 -0.1996,-0.795279 1.11397,-2.339459 4.13077,-4.855965 2.27104,-1.894416 4.39111,-3.477917 11.21783,-8.37871 6.30217,-4.524221 9.7071,-7.150669 10.35986,-7.991237 0.72795,-0.937398 1.69169,-1.275379 2.3238,-0.814953 0.34302,0.249856 0.69145,0.94655 0.69145,1.382571 0,0.46641 -0.29272,0.848144 -1.68868,2.202232 -4.90558,4.758413 -20.69662,16.680979 -24.63008,18.596222 -0.92794,0.451823 -1.03992,0.479147 -1.55357,0.379041 z"
       id="path851"
       inkscape:connector-curvature="0"
       transform="matrix(7.5,0,0,-7.5,0,1920)" />
    <path
       style="fill:#ff8b00;fill-opacity:1;stroke:none;stroke-width:0.22431131;stroke-linecap:round;stroke-linejoin:round;stroke-miterlimit:4;stroke-dasharray:none;stroke-dashoffset:0;stroke-opacity:1;paint-order:normal"
       d="m 213.96358,125.03252 c -0.32938,-0.30526 -0.53647,-0.80043 -0.53647,-1.28275 0,-0.43818 0.35634,-0.93433 1.35577,-1.88771 5.3056,-5.06116 23.03847,-16.93911 26.41785,-17.69539 l 0.54165,-0.12121 0.33177,0.37827 c 0.39881,0.45471 0.62536,0.94974 0.54726,1.19581 -0.19834,0.62494 -14.23218,10.66005 -23.6155,16.88662 -3.13223,2.07848 -4.27406,2.76598 -4.59385,2.76598 -0.10445,0 -0.30627,-0.10783 -0.44848,-0.23962 z"
       id="path853"
       inkscape:connector-curvature="0"
       transform="matrix(7.5,0,0,-7.5,0,1920)" />
    <path
       style="fill:#ffff00;fill-opacity:1;stroke:none;stroke-width:0.22431131;stroke-linecap:round;stroke-linejoin:round;stroke-miterlimit:4;stroke-dasharray:none;stroke-dashoffset:0;stroke-opacity:1;paint-order:normal"
       d="m 216.45487,117.00259 c -0.19933,-0.30569 -0.33807,-0.98171 -0.34081,-1.6605 -0.002,-0.50604 0.0445,-0.65855 0.3572,-1.17031 0.79103,-1.29464 3.15927,-3.71747 5.77972,-5.91297 1.63616,-1.37083 7.17533,-5.54779 8.62553,-6.50431 1.75527,-1.15775 2.56407,-1.48179 3.23565,-1.29636 0.41088,0.11345 1.50159,1.11737 1.63748,1.50717 0.31311,0.8982 -1.19112,2.52817 -5.06433,5.48766 -4.28695,3.27561 -13.60983,9.76535 -14.0285,9.76535 -0.0337,0 -0.12458,-0.0971 -0.20194,-0.21573 z"
       id="path855"
       inkscape:connector-curvature="0"
       transform="matrix(7.5,0,0,-7.5,0,1920)" />
    <path
       style="fill:#ff7500;fill-opacity:1;stroke:none;stroke-width:0.22431131;stroke-linecap:round;stroke-linejoin:round;stroke-miterlimit:4;stroke-dasharray:none;stroke-dashoffset:0;stroke-opacity:1;paint-order:normal"
       d="m 16.738423,90.31744 c -0.18381,-0.183809 -0.185974,-0.250383 -0.02098,-0.645267 0.606641,-1.451898 4.670996,-4.772443 13.772752,-11.252229 4.778804,-3.402159 6.295329,-4.458068 8.485282,-5.908039 3.472989,-2.299472 5.14264,-3.122082 5.79143,-2.853344 0.333353,0.138079 0.488637,0.456677 0.488637,1.002543 0,0.337795 -0.06913,0.500941 -0.373897,0.882369 -2.173966,2.720816 -20.020118,15.575642 -25.501273,18.368912 -1.033745,0.52681 -1.126917,0.555722 -1.790881,0.555722 -0.508891,0 -0.741599,-0.0412 -0.85107,-0.150667 z"
       id="path857"
       inkscape:connector-curvature="0"
       transform="matrix(7.5,0,0,-7.5,0,1920)" />
    <path
       style="fill:#ff0000;fill-opacity:1;stroke:none;stroke-width:0.22431131;stroke-linecap:round;stroke-linejoin:round;stroke-miterlimit:4;stroke-dasharray:none;stroke-dashoffset:0;stroke-opacity:1;paint-order:normal"
       d="m 179.07305,35.742546 c -0.43279,-0.09354 -0.46676,-0.968871 -0.0613,-1.580933 1.45583,-2.197903 10.07084,-8.50064 14.97875,-10.958439 1.78287,-0.892835 2.7192,-1.111016 2.98,-0.694392 0.32968,0.526649 -1.49161,2.380955 -4.68465,4.769579 -1.82075,1.362057 -5.89172,4.222082 -8.53322,5.994935 -2.88599,1.936954 -4.12279,2.589575 -4.67954,2.46925 z"
       id="path859"
       inkscape:connector-curvature="0"
       transform="matrix(7.5,0,0,-7.5,0,1920)" />
    <path
       style="fill:#ffe900;fill-opacity:1;stroke:none;stroke-width:0.63444817;stroke-linecap:round;stroke-linejoin:round;stroke-miterlimit:4;stroke-dasharray:none;stroke-dashoffset:0;stroke-opacity:1;paint-order:normal"
       d="m 55.009743,164.05538 c -0.164884,-0.36188 -0.226323,-0.95069 -0.13653,-1.30845 0.645328,-2.57119 15.72318,-13.68077 21.6342,-15.94039 1.436611,-0.54918 1.574487,-0.55759 2.372882,-0.14472 0.466205,0.24109 0.846965,0.52673 0.846132,0.63476 -0.0041,0.53589 -23.408851,17.41677 -24.147706,17.41677 -0.148053,0 -0.404093,-0.29609 -0.568978,-0.65797 z"
       id="path861"
       inkscape:connector-curvature="0"
       transform="matrix(7.5,0,0,-7.5,0,1920)" />
    <path
       style="fill:#ff7a00;fill-opacity:1;stroke:none;stroke-width:0.63444817;stroke-linecap:round;stroke-linejoin:round;stroke-miterlimit:4;stroke-dasharray:none;stroke-dashoffset:0;stroke-opacity:1;paint-order:normal"
       d="m 54.507602,169.92884 c 0,-0.88706 1.347933,-2.47323 3.460725,-4.07238 3.083943,-2.3342 16.005904,-11.5141 19.42005,-13.7962 1.621714,-1.084 3.373971,-2.11131 3.893905,-2.2829 0.828401,-0.2734 1.011812,-0.24551 1.48279,0.22547 0.469725,0.46973 0.491639,0.61153 0.173893,1.12523 -0.980195,1.58467 -10.272744,8.806 -17.838391,13.86239 -6.846132,4.5755 -10.592972,6.32226 -10.592972,4.93839 z"
       id="path863"
       inkscape:connector-curvature="0"
       transform="matrix(7.5,0,0,-7.5,0,1920)" />
    <path
       style="fill:#ff0000;fill-opacity:1;stroke:none;stroke-width:1.68233478;stroke-linecap:round;stroke-linejoin:round;stroke-miterlimit:4;stroke-dasharray:none;stroke-dashoffset:0;stroke-opacity:1;paint-order:normal"
       d="m 468.95388,626.94951 c -3.24592,0.7016 -3.5007,7.2665 -0.45975,11.857 10.91873,16.4843 75.53131,63.7548 112.34063,82.1883 13.37153,6.6963 20.394,8.3326 22.35001,5.2079 2.4726,-3.9498 -11.18708,-17.8571 -35.13488,-35.7718 -13.65563,-10.2154 -44.18791,-31.6656 -63.99916,-44.962 -21.64492,-14.5272 -30.92092,-19.4218 -35.09655,-18.5194 z"
       id="path859-3"
       inkscape:connector-curvature="0" />
    <path
       style="fill:#ff0000;fill-opacity:1;stroke:none;stroke-width:1.68233478;stroke-linecap:round;stroke-linejoin:round;stroke-miterlimit:4;stroke-dasharray:none;stroke-dashoffset:0;stroke-opacity:1;paint-order:normal"
       d="m 143.53016,1300.1698 c -3.24593,0.7016 -3.5007,7.2665 -0.45975,11.857 10.91872,16.4843 75.5313,63.7548 112.34062,82.1883 13.37153,6.6963 20.394,8.3326 22.35001,5.2079 2.4726,-3.9498 -11.18708,-17.8571 -35.13488,-35.7718 -13.65562,-10.2154 -44.1879,-31.6656 -63.99915,-44.962 -21.64493,-14.5272 -30.92093,-19.4218 -35.09655,-18.5194 z"
       id="path859-6"
       inkscape:connector-curvature="0" />
    <path
       style="fill:#ff0000;fill-opacity:1;stroke:none;stroke-width:1.68233478;stroke-linecap:round;stroke-linejoin:round;stroke-miterlimit:4;stroke-dasharray:none;stroke-dashoffset:0;stroke-opacity:1;paint-order:normal"
       d="m 1658.7844,968.64442 c -3.2459,0.7016 -3.5007,7.2665 -0.4597,11.857 10.9187,16.4843 75.5313,63.75478 112.3406,82.18828 13.3715,6.6963 20.394,8.3326 22.35,5.2079 2.4726,-3.9498 -11.1871,-17.8571 -35.1349,-35.7718 -13.6556,-10.2154 -44.1879,-31.6656 -63.9991,-44.96198 -21.6449,-14.5272 -30.9209,-19.4218 -35.0966,-18.5194 z"
       id="path859-7"
       inkscape:connector-curvature="0" />
  </g>
</svg>
